<svg xmlns="http://www.w3.org/2000/svg" version="1.1" xmlns:xlink="http://www.w3.org/1999/xlink" xmlns:svgjs="http://svgjs.dev/svgjs" width="1500" height="1500" viewBox="0 0 1500 1500"><rect width="1500" height="1500" fill="#ffffff"></rect><g transform="matrix(0.6666666666666666,0,0,0.6666666666666666,249.39393939393938,435.99032258064517)"><svg viewBox="0 0 396 248" data-background-color="#f8f8f8" preserveAspectRatio="xMidYMid meet" height="939" width="1500" xmlns="http://www.w3.org/2000/svg" xmlns:xlink="http://www.w3.org/1999/xlink"><g id="tight-bounds" transform="matrix(1,0,0,1,0.2400000000000091,0.4000000000000057)"><svg viewBox="0 0 395.52 247.2" height="247.2" width="395.52"><g><svg></svg></g><g><svg viewBox="0 0 395.52 247.2" height="247.2" width="395.52"><g transform="matrix(1,0,0,1,75.54432,92.62837052350784)"><svg viewBox="0 0 244.43135999999998 61.943258952984316" height="61.943258952984316" width="244.43135999999998"><g><svg viewBox="0 0 244.43135999999998 61.943258952984316" height="61.943258952984316" width="244.43135999999998"><g><svg viewBox="0 0 244.43135999999998 61.943258952984316" height="61.943258952984316" width="244.43135999999998"><g><svg viewBox="0 0 244.43135999999998 61.943258952984316" height="61.943258952984316" width="244.43135999999998"><g id="textblocktransform"><svg viewBox="0 0 244.43135999999998 61.943258952984316" height="61.943258952984316" width="244.43135999999998" id="textblock"><g><svg viewBox="0 0 244.43135999999998 61.943258952984316" height="61.943258952984316" width="244.43135999999998"><g transform="matrix(1,0,0,1,0,0)"><svg width="244.43135999999998" viewBox="0.3 -37.5 149.94 38" height="61.943258952984316" data-palette-color="#61777f"><path d="M30.75 0L16.85 0 16.85-0.9 19.15-0.9 13.5-12.5 12.55-12.25 12.55-0.9 14.85-0.9 14.85 0 0.5 0 0.5-0.9 3.25-0.9 3.25-36.6 0.3-36.6 0.3-37.5 12.55-37.5 12.55-13.25 13.35-13.55 24.6-22.9 19.9-22.9 19.9-23.8 29.75-23.8 29.75-22.9 26.25-22.9 20.3-17.85 28.95-0.9 30.75-0.9 30.75 0ZM46.4-9.85L46.4-9.85 46.4-14.1Q46.4-18.95 45.87-21.18 45.35-23.4 43.45-23.4L43.45-23.4Q42.35-23.4 41.67-22.78 41-22.15 40.7-20.7L40.7-20.7Q40.25-18.45 40.25-13.85L40.25-13.85 40.25-9.95Q40.25-4.5 40.57-3.4 40.9-2.3 41.25-1.6L41.25-1.6Q41.8-0.4 43.4-0.4L43.4-0.4Q45.35-0.4 45.95-2.65L45.95-2.65Q46.4-4.25 46.4-9.85ZM43.3 0.5Q37.05 0.5 33.85-2.7 30.65-5.9 30.65-11.88 30.65-17.85 34.07-21.08 37.5-24.3 43.7-24.3 49.9-24.3 52.95-21.33 56-18.35 56-12.25L56-12.25Q56 0.5 43.3 0.5L43.3 0.5ZM59.9-7.15L59.9-7.15 59.9-22.9 57.15-22.9 57.15-23.8 59.9-23.8 59.9-30.25 69.2-32.55 69.2-23.8 75.7-23.8 75.7-22.9 69.2-22.9 69.2-6.05Q69.2-3.7 69.67-2.6 70.15-1.5 71.65-1.5 73.15-1.5 74.27-3 75.4-4.5 75.75-7.1L75.75-7.1 76.59-7Q76.2-3.55 74.4-1.53 72.59 0.5 68.45 0.5 64.3 0.5 62.1-1.15 59.9-2.8 59.9-7.15ZM84.44-27.25Q81.79-27.25 80.67-28.6 79.54-29.95 79.54-31.95 79.54-33.95 80.77-35.25 81.99-36.55 84.49-36.55 86.99-36.55 88.29-35.38 89.59-34.2 89.59-32.02 89.59-29.85 88.34-28.55 87.09-27.25 84.44-27.25ZM76.89-22.9L76.89-23.8 89.14-23.8 89.14-0.9 91.94-0.9 91.94 0 77.09 0 77.09-0.9 79.84-0.9 79.84-22.9 76.89-22.9ZM109.09-9.85L109.09-9.85 109.09-14.1Q109.09-18.95 108.56-21.18 108.04-23.4 106.14-23.4L106.14-23.4Q105.04-23.4 104.36-22.78 103.69-22.15 103.39-20.7L103.39-20.7Q102.94-18.45 102.94-13.85L102.94-13.85 102.94-9.95Q102.94-4.5 103.27-3.4 103.59-2.3 103.94-1.6L103.94-1.6Q104.49-0.4 106.09-0.4L106.09-0.4Q108.04-0.4 108.64-2.65L108.64-2.65Q109.09-4.25 109.09-9.85ZM105.99 0.5Q99.74 0.5 96.54-2.7 93.34-5.9 93.34-11.88 93.34-17.85 96.77-21.08 100.19-24.3 106.39-24.3 112.59-24.3 115.64-21.33 118.69-18.35 118.69-12.25L118.69-12.25Q118.69 0.5 105.99 0.5L105.99 0.5ZM120.19-22.9L120.19-23.8 132.24-23.8 132.24-19.2Q133.04-21.5 134.69-22.9 136.34-24.3 139.69-24.3L139.69-24.3Q147.44-24.3 147.44-15.95L147.44-15.95 147.44-0.9 150.24-0.9 150.24 0 136.09 0 136.09-0.9 138.14-0.9 138.14-17.15Q138.14-20.15 137.74-21.03 137.34-21.9 136.29-21.9L136.29-21.9Q134.69-21.9 133.46-19.8 132.24-17.7 132.24-14.7L132.24-14.7 132.24-0.9 134.39-0.9 134.39 0 120.19 0 120.19-0.9 122.94-0.9 122.94-22.9 120.19-22.9Z" opacity="1" transform="matrix(1,0,0,1,0,0)" fill="#000000" class="wordmark-text-0" data-fill-palette-color="primary" id="text-0"></path></svg></g></svg></g></svg></g></svg></g></svg></g></svg></g></svg></g><path d="M195.534 86.628L195.534 28.256 386.222 28.256 386.222 218.944 195.534 218.944 195.534 160.572 201.12 160.572 201.12 213.358 380.636 213.358 380.636 33.842 201.12 33.842 201.12 86.628Z" fill="#000000" stroke="transparent" data-fill-palette-color="tertiary"></path></svg></g><defs></defs></svg><rect width="395.52" height="247.2" fill="none" stroke="none" visibility="hidden"></rect></g></svg></g></svg>